name analog
datacolumns 19
datarows 37
range 0.34750000000000003 0.3655
endheader
time	ground_force_vx	ground_force_vy	ground_force_vz	ground_force_px	ground_force_py	ground_force_pz	l_ground_force_vx	l_ground_force_vy	l_ground_force_vz	l_ground_force_px	l_ground_force_py	l_ground_force_pz	ground_torque_x	ground_torque_y	ground_torque_z	l_ground_torque_x	l_ground_torque_y	l_ground_torque_z
0.34750000000000003	-0.0	-0.0	-0.0	-9.12002944946289	56.865196228027344	-357.1739501953125	2.831191062927246	-59.460693359375	-430.63861083984375	-0.0	-0.0	-0.0	-0.0	-0.0	-0.0	103548.90625	-17597.115234375	-3803.302001953125
0.34800000000000003	-0.0	-0.0	-0.0	-9.188682556152344	56.98858642578125	-357.3640441894531	3.036528348922729	-58.672393798828125	-428.2745361328125	-0.0	-0.0	-0.0	-0.0	-0.0	-0.0	103473.46875	-17411.962890625	-3764.02978515625
0.34850000000000003	-0.0	-0.0	-0.0	-9.332850456237791	56.748233795166016	-356.9293212890625	3.2072925567626958	-58.44166946411133	-427.1193542480469	-0.0	-0.0	-0.0	-0.0	-0.0	-0.0	103175.6328125	-17465.677734375	-3522.003173828125
0.34900000000000003	-0.0	-0.0	-0.0	-8.866071701049805	57.221717834472656	-355.3811950683594	3.5347940921783447	-57.86428451538086	-426.4484252929688	-0.0	-0.0	-0.0	-0.0	-0.0	-0.0	102919.7265625	-17555.09765625	-3505.6923828125
0.34950000000000003	-0.0	-0.0	-0.0	-8.262382507324219	57.392539978027344	-357.28271484375	3.534902811050415	-57.90509796142578	-424.8089904785156	-0.0	-0.0	-0.0	-0.0	-0.0	-0.0	102285.828125	-17730.021484375	-3423.55859375
0.35000000000000003	-0.0	-0.0	-0.0	-7.858154773712158	57.84563446044922	-356.328369140625	3.9507381916046143	-57.3680305480957	-423.3341064453125	-0.0	-0.0	-0.0	-0.0	-0.0	-0.0	101945.5390625	-17922.4921875	-3388.974609375
0.35050000000000003	-0.0	-0.0	-0.0	-7.506869316101074	57.85105514526367	-356.0268859863281	4.20342493057251	-57.19858551025391	-420.1632995605469	-0.0	-0.0	-0.0	-0.0	-0.0	-0.0	101334.3359375	-17873.5625	-3281.496826171875
0.35100000000000003	-0.0	-0.0	-0.0	-7.624930381774902	57.99496078491211	-355.8907470703125	4.6866455078125	-56.94683074951172	-419.6802368164063	-0.0	-0.0	-0.0	-0.0	-0.0	-0.0	101244.09375	-17949.82421875	-3125.85546875
0.35150000000000003	-0.0	-0.0	-0.0	-7.170900344848633	57.803489685058594	-356.576904296875	4.545069694519043	-56.75704956054688	-417.7492065429688	-0.0	-0.0	-0.0	-0.0	-0.0	-0.0	100785.5703125	-17864.12890625	-3032.526611328125
0.352	-0.0	-0.0	-0.0	-6.860924243927002	58.15988159179688	-356.4095153808594	4.824295520782471	-56.64796829223633	-416.7226257324219	-0.0	-0.0	-0.0	-0.0	-0.0	-0.0	100301.171875	-18076.529296875	-2956.4111328125
0.3525	-0.0	-0.0	-0.0	-6.911640644073486	58.3380241394043	-356.5437316894531	5.4323015213012695	-56.24803161621094	-415.1921997070313	-0.0	-0.0	-0.0	-0.0	-0.0	-0.0	100045.046875	-18187.052734375	-2865.174560546875
0.353	-0.0	-0.0	-0.0	-6.5250396728515625	58.59260559082031	-356.4428405761719	5.491884231567383	-55.86578369140625	-414.3097534179688	-0.0	-0.0	-0.0	-0.0	-0.0	-0.0	99926.0625	-18461.083984375	-2771.776611328125
0.3535	-0.0	-0.0	-0.0	-7.133076190948486	58.92774963378906	-355.3139343261719	5.800012111663818	-55.77731323242188	-413.6946105957031	-0.0	-0.0	-0.0	-0.0	-0.0	-0.0	99540.296875	-18291.8359375	-2734.879638671875
0.354	-0.0	-0.0	-0.0	-6.915566444396973	59.15768051147461	-356.0408630371094	6.129571914672852	-55.541770935058594	-410.768798828125	-0.0	-0.0	-0.0	-0.0	-0.0	-0.0	99220.265625	-18302.0546875	-2538.26513671875
0.3545	-0.0	-0.0	-0.0	-6.992275238037109	59.407020568847656	-356.57769775390625	6.146077632904053	-55.49582290649414	-409.0386047363281	-0.0	-0.0	-0.0	-0.0	-0.0	-0.0	98779.4921875	-18390.134765625	-2522.797119140625
0.355	-0.0	-0.0	-0.0	-7.192232131958008	59.78494644165039	-357.8197631835937	6.475887298583984	-54.902530670166016	-408.9753723144531	-0.0	-0.0	-0.0	-0.0	-0.0	-0.0	98737.3828125	-18321.830078125	-2505.26806640625
0.3555	-0.0	-0.0	-0.0	-6.746201992034912	60.15085220336914	-358.2582702636719	6.619624614715576	-54.75944519042969	-407.9902648925781	-0.0	-0.0	-0.0	-0.0	-0.0	-0.0	98483.09375	-18530.5625	-2352.66015625
0.356	-0.0	-0.0	-0.0	-6.635337829589844	60.57494354248047	-358.305908203125	6.442239284515381	-54.77162551879883	-407.6285400390625	-0.0	-0.0	-0.0	-0.0	-0.0	-0.0	98374.1484375	-18408.099609375	-2334.376708984375
0.3565	-0.0	-0.0	-0.0	-7.059591293334961	61.16520309448242	-360.0238952636719	6.674796581268311	-54.1625862121582	-407.0739440917969	-0.0	-0.0	-0.0	-0.0	-0.0	-0.0	98085.109375	-18637.998046875	-2300.326416015625
0.357	-0.0	-0.0	-0.0	-6.678893566131592	61.52374649047852	-362.0094604492188	6.916855812072754	-53.99799346923828	-405.544677734375	-0.0	-0.0	-0.0	-0.0	-0.0	-0.0	98040.953125	-18558.865234375	-2215.167236328125
0.3575	-0.0	-0.0	-0.0	-6.625148773193359	61.81277847290039	-364.9681701660156	6.775573253631592	-53.97644805908203	-406.8086853027344	-0.0	-0.0	-0.0	-0.0	-0.0	-0.0	98008.6171875	-18682.67578125	-2233.6943359375
0.358	-0.0	-0.0	-0.0	-6.278364658355713	61.84623336791992	-363.3759460449219	6.943122863769531	-54.10782623291016	-405.6754760742188	-0.0	-0.0	-0.0	-0.0	-0.0	-0.0	98370.09375	-18790.01953125	-2248.775634765625
0.3585	-0.0	-0.0	-0.0	-5.69908618927002	62.10191345214844	-364.83489990234375	7.140302658081055	-54.05287170410156	-406.97894287109375	-0.0	-0.0	-0.0	-0.0	-0.0	-0.0	98623.2734375	-18968.73046875	-2044.269287109375
0.359	-0.0	-0.0	-0.0	-4.851870059967041	62.9596061706543	-365.4956970214844	7.2524919509887695	-54.37284851074219	-408.421630859375	-0.0	-0.0	-0.0	-0.0	-0.0	-0.0	98832.5546875	-19187.03515625	-2025.2921142578125
0.3595	-0.0	-0.0	-0.0	-4.97364616394043	62.9146842956543	-366.1599426269531	7.352688312530518	-54.46245193481445	-409.9949645996094	-0.0	-0.0	-0.0	-0.0	-0.0	-0.0	99085.421875	-19217.251953125	-2025.759033203125
0.36	-0.0	-0.0	-0.0	-5.073704719543457	63.18217086791992	-367.6603393554688	7.406853675842285	-54.2731819152832	-411.0789794921875	-0.0	-0.0	-0.0	-0.0	-0.0	-0.0	99150.34375	-19476.021484375	-1884.68505859375
0.3605	-0.0	-0.0	-0.0	-4.215305328369141	63.382911682128906	-368.98486328125	7.284899711608887	-54.582801818847656	-410.5157775878906	-0.0	-0.0	-0.0	-0.0	-0.0	-0.0	99109.515625	-19685.62890625	-1855.4595947265625
0.361	-0.0	-0.0	-0.0	-4.34882926940918	63.31599044799805	-366.2036743164063	6.986091136932373	-54.67112731933594	-410.9957885742188	-0.0	-0.0	-0.0	-0.0	-0.0	-0.0	99279.875	-19622.431640625	-1911.1832275390625
0.3615	-0.0	-0.0	-0.0	-4.359889984130859	63.39410781860352	-368.1022338867188	7.008152008056641	-54.66001892089844	-412.6533203125	-0.0	-0.0	-0.0	-0.0	-0.0	-0.0	99494.6328125	-19758.916015625	-1959.265380859375
0.362	-0.0	-0.0	-0.0	-4.226263999938965	62.80359649658203	-367.5282287597656	7.229955196380615	-54.49448394775391	-412.34808349609375	-0.0	-0.0	-0.0	-0.0	-0.0	-0.0	99864.921875	-19899.376953125	-1836.748291015625
0.3625	-0.0	-0.0	-0.0	-4.4605255126953125	62.75858688354492	-367.0431823730469	7.606863975524902	-54.79252624511719	-413.1339721679688	-0.0	-0.0	-0.0	-0.0	-0.0	-0.0	100145.8046875	-20300.091796875	-1729.0216064453125
0.363	-0.0	-0.0	-0.0	-4.025154113769531	62.96058654785156	-365.409423828125	7.540416717529297	-54.88080978393555	-414.0511169433594	-0.0	-0.0	-0.0	-0.0	-0.0	-0.0	100457.0	-20274.658203125	-1729.09130859375
0.3635	-0.0	-0.0	-0.0	-4.149000644683838	63.00316619873047	-368.5404357910156	7.406949520111084	-54.593544006347656	-414.9651489257813	-0.0	-0.0	-0.0	-0.0	-0.0	-0.0	100623.203125	-20448.775390625	-1580.79296875
0.364	-0.0	-0.0	-0.0	-4.058220386505127	63.07283020019531	-367.35552978515625	7.496607303619385	-54.85840225219727	-415.5744934082031	-0.0	-0.0	-0.0	-0.0	-0.0	-0.0	101034.375	-20414.9140625	-1502.8828125
0.3645	-0.0	-0.0	-0.0	-3.624427795410156	63.048370361328125	-367.8820495605469	7.573510646820068	-54.79239654541016	-417.715576171875	-0.0	-0.0	-0.0	-0.0	-0.0	-0.0	101288.4609375	-20591.63671875	-1588.256591796875
0.365	-0.0	-0.0	-0.0	-3.6679527759552	63.01519775390625	-368.4075317382813	7.683184623718262	-55.14565658569336	-417.3250122070313	-0.0	-0.0	-0.0	-0.0	-0.0	-0.0	101349.171875	-20680.330078125	-1535.9757080078125
0.3655	-0.0	-0.0	-0.0	-3.634702444076538	63.11452865600586	-367.5695495605469	7.596095561981201	-55.35514831542969	-418.3653869628906	-0.0	-0.0	-0.0	-0.0	-0.0	-0.0	101433.9609375	-20764.73828125	-1507.00537109375
